<svg xmlns="http://www.w3.org/2000/svg" xmlns:xlink="http://www.w3.org/1999/xlink" version="1.1" width="24" height="24" viewBox="0 0 24 24">
<defs>
<clipPath id="clip_0">
<path transform="matrix(1,0,0,-1,0,24)" d="M0 24H24V0H0Z"/>
</clipPath>
</defs>
<g id="layer_1">
<g clip-path="url(#clip_0)">
<path transform="matrix(1,0,0,-1,12.0001,2)" d="M0 0C-5.53 0-10-4.47-10-10-10-15.53-5.53-20 0-20 5.53-20 10-15.53 10-10 10-4.47 5.53 0 0 0M0 2C3.209 2 6.223 .753 8.488-1.512 10.753-3.777 12-6.791 12-10 12-13.209 10.753-16.223 8.488-18.488 6.223-20.753 3.209-22 0-22-3.209-22-6.223-20.753-8.488-18.488-10.753-16.223-12-13.209-12-10-12-6.791-10.753-3.777-8.488-1.512-6.223 .753-3.209 2 0 2" fill="#0041ac"/>
<path transform="matrix(1,0,0,-1,7.0508,15.5347)" d="M0 0 3.535 3.535 0 7.07C-.392 7.462-.392 8.094-.002 8.484 .39 8.876 1.022 8.876 1.414 8.484L4.949 4.949 8.485 8.485C8.876 8.876 9.509 8.876 9.898 8.486 10.29 8.095 10.291 7.462 9.899 7.07L6.364 3.535 9.899 0C10.291-.392 10.291-1.025 9.899-1.417 9.509-1.807 8.876-1.806 8.485-1.415L4.95 2.121 1.415-1.415C1.023-1.806 .389-1.806-.002-1.415-.392-1.025-.392-.392 0 0" fill="#0041ac"/>
</g>
</g>
</svg>
