<svg xmlns="http://www.w3.org/2000/svg" xmlns:xlink="http://www.w3.org/1999/xlink" version="1.1" width="24pt" height="24pt" viewBox="0 0 24 24">
<defs>
<clipPath id="clip_0">
<path transform="matrix(1,0,0,-1,0,24)" d="M0 24H24V0H0Z"/>
</clipPath>
</defs>
<g id="layer_1" data-name="">
<g clip-path="url(#clip_0)">
<path transform="matrix(1,0,0,-1,12.0001,2)" d="M0 0C-5.53 0-10-4.47-10-10-10-15.53-5.53-20 0-20 5.53-20 10-15.53 10-10 10-4.47 5.53 0 0 0M0 2C3.209 2 6.223 .753 8.488-1.512 10.753-3.777 12-6.791 12-10 12-13.209 10.753-16.223 8.488-18.488 6.223-20.753 3.209-22 0-22-3.209-22-6.223-20.753-8.488-18.488-10.753-16.223-12-13.209-12-10-12-6.791-10.753-3.777-8.488-1.512-6.223 .753-3.209 2 0 2" fill="#0041ac"/>
<path transform="matrix(1,0,0,-1,10.9999,17.999)" d="M0 0V4.999H-4.999C-5.553 4.999-6.001 5.446-6.001 5.998-6.001 6.552-5.553 6.999-4.999 6.999H0V11.999C0 12.553 .448 13 .999 13 1.553 13 2 12.553 2 11.999V6.999H7C7.554 6.999 8.001 6.552 8.001 5.998 8.001 5.446 7.554 4.999 7 4.999H2V0C2-.554 1.553-1.002 .999-1.002 .448-1.002 0-.554 0 0" fill="#0041ac"/>
</g>
</g>
</svg>
