<svg xmlns="http://www.w3.org/2000/svg" xmlns:xlink="http://www.w3.org/1999/xlink" version="1.1" width="24pt" height="24pt" viewBox="0 0 24 24">
<defs>
<clipPath id="clip_0">
<path transform="matrix(1,0,0,-1,0,24)" d="M0 0H24V24H0Z"/>
</clipPath>
</defs>
<g>
<g id="layer_1" data-name="">
<g clip-path="url(#clip_0)">
<path transform="matrix(1,0,0,-1,12.0002,0)" d="M0 0C.788 0 1.568-.077 2.341-.23 3.113-.384 3.864-.612 4.592-.914 5.32-1.215 6.012-1.584 6.667-2.022 7.322-2.46 7.928-2.958 8.485-3.515 9.042-4.072 9.54-4.678 9.978-5.333 10.415-5.988 10.785-6.68 11.086-7.408 11.388-8.136 11.615-8.886 11.77-9.659 11.923-10.432 12-11.212 12-12 12-12.788 11.923-13.568 11.77-14.341 11.615-15.114 11.388-15.864 11.086-16.592 10.785-17.32 10.415-18.012 9.978-18.667 9.54-19.322 9.042-19.928 8.485-20.485 7.928-21.042 7.322-21.54 6.667-21.978 6.012-22.416 5.32-22.785 4.592-23.086 3.864-23.388 3.113-23.616 2.341-23.77 1.568-23.923 .788-24 0-24-.788-24-1.568-23.923-2.341-23.77-3.114-23.616-3.864-23.388-4.593-23.086-5.32-22.785-6.012-22.416-6.667-21.978-7.322-21.54-7.929-21.042-8.485-20.485-9.043-19.928-9.54-19.322-9.978-18.667-10.416-18.012-10.785-17.32-11.087-16.592-11.389-15.864-11.616-15.114-11.77-14.341-11.923-13.568-12-12.788-12-12-12-11.212-11.923-10.432-11.77-9.659-11.616-8.886-11.389-8.136-11.087-7.408-10.785-6.68-10.416-5.988-9.978-5.333-9.54-4.678-9.043-4.072-8.485-3.515-7.929-2.958-7.322-2.46-6.667-2.022-6.012-1.584-5.32-1.215-4.593-.914-3.864-.612-3.114-.384-2.341-.23-1.568-.077-.788 0 0 0" fill="#7e828a"/>
<path transform="matrix(1,0,0,-1,16.9494,18.3638)" d="M0 0-4.95 4.95-9.899 0C-10.29-.391-10.924-.391-11.314 0-11.705 .391-11.705 1.024-11.314 1.415L-6.364 6.364-11.313 11.314C-11.704 11.705-11.704 12.337-11.313 12.728-10.923 13.118-10.29 13.118-9.899 12.728L-4.95 7.778 0 12.728C.391 13.118 1.023 13.118 1.414 12.728 1.804 12.337 1.804 11.705 1.414 11.314L-3.536 6.364 1.414 1.414C1.805 1.023 1.805 .391 1.414 0 1.219-.195 .963-.293 .707-.293 .451-.293 .195-.195 0 0" fill="#ffffff"/>
</g>
</g>
</g>
</svg>
